%TF.GenerationSoftware,KiCad,Pcbnew,9.0.2*%
%TF.CreationDate,2025-06-02T11:29:15-03:00*%
%TF.ProjectId,PCB_Borneras,5043425f-426f-4726-9e65-7261732e6b69,rev?*%
%TF.SameCoordinates,Original*%
%TF.FileFunction,Legend,Top*%
%TF.FilePolarity,Positive*%
%FSLAX46Y46*%
G04 Gerber Fmt 4.6, Leading zero omitted, Abs format (unit mm)*
G04 Created by KiCad (PCBNEW 9.0.2) date 2025-06-02 11:29:15*
%MOMM*%
%LPD*%
G01*
G04 APERTURE LIST*
%ADD10C,0.100000*%
%ADD11C,0.150000*%
%ADD12C,0.120000*%
%ADD13C,0.127000*%
%ADD14C,0.200000*%
G04 APERTURE END LIST*
D10*
X106708646Y-54372419D02*
X106946741Y-55372419D01*
X106946741Y-55372419D02*
X107137217Y-54658133D01*
X107137217Y-54658133D02*
X107327693Y-55372419D01*
X107327693Y-55372419D02*
X107565789Y-54372419D01*
X107899122Y-55086704D02*
X108375312Y-55086704D01*
X107803884Y-55372419D02*
X108137217Y-54372419D01*
X108137217Y-54372419D02*
X108470550Y-55372419D01*
X108661027Y-54372419D02*
X109232455Y-54372419D01*
X108946741Y-55372419D02*
X108946741Y-54372419D01*
X109565789Y-54848609D02*
X109899122Y-54848609D01*
X110041979Y-55372419D02*
X109565789Y-55372419D01*
X109565789Y-55372419D02*
X109565789Y-54372419D01*
X109565789Y-54372419D02*
X110041979Y-54372419D01*
X111041979Y-55372419D02*
X110708646Y-54896228D01*
X110470551Y-55372419D02*
X110470551Y-54372419D01*
X110470551Y-54372419D02*
X110851503Y-54372419D01*
X110851503Y-54372419D02*
X110946741Y-54420038D01*
X110946741Y-54420038D02*
X110994360Y-54467657D01*
X110994360Y-54467657D02*
X111041979Y-54562895D01*
X111041979Y-54562895D02*
X111041979Y-54705752D01*
X111041979Y-54705752D02*
X110994360Y-54800990D01*
X110994360Y-54800990D02*
X110946741Y-54848609D01*
X110946741Y-54848609D02*
X110851503Y-54896228D01*
X110851503Y-54896228D02*
X110470551Y-54896228D01*
X107627580Y-71303884D02*
X108627580Y-71303884D01*
X108627580Y-71303884D02*
X108627580Y-71684836D01*
X108627580Y-71684836D02*
X108579961Y-71780074D01*
X108579961Y-71780074D02*
X108532342Y-71827693D01*
X108532342Y-71827693D02*
X108437104Y-71875312D01*
X108437104Y-71875312D02*
X108294247Y-71875312D01*
X108294247Y-71875312D02*
X108199009Y-71827693D01*
X108199009Y-71827693D02*
X108151390Y-71780074D01*
X108151390Y-71780074D02*
X108103771Y-71684836D01*
X108103771Y-71684836D02*
X108103771Y-71303884D01*
X107627580Y-72303884D02*
X108627580Y-72303884D01*
X108151390Y-72303884D02*
X108151390Y-72875312D01*
X107627580Y-72875312D02*
X108627580Y-72875312D01*
X107913295Y-73303884D02*
X107913295Y-73780074D01*
X107627580Y-73208646D02*
X108627580Y-73541979D01*
X108627580Y-73541979D02*
X107627580Y-73875312D01*
X107675200Y-74161027D02*
X107627580Y-74303884D01*
X107627580Y-74303884D02*
X107627580Y-74541979D01*
X107627580Y-74541979D02*
X107675200Y-74637217D01*
X107675200Y-74637217D02*
X107722819Y-74684836D01*
X107722819Y-74684836D02*
X107818057Y-74732455D01*
X107818057Y-74732455D02*
X107913295Y-74732455D01*
X107913295Y-74732455D02*
X108008533Y-74684836D01*
X108008533Y-74684836D02*
X108056152Y-74637217D01*
X108056152Y-74637217D02*
X108103771Y-74541979D01*
X108103771Y-74541979D02*
X108151390Y-74351503D01*
X108151390Y-74351503D02*
X108199009Y-74256265D01*
X108199009Y-74256265D02*
X108246628Y-74208646D01*
X108246628Y-74208646D02*
X108341866Y-74161027D01*
X108341866Y-74161027D02*
X108437104Y-74161027D01*
X108437104Y-74161027D02*
X108532342Y-74208646D01*
X108532342Y-74208646D02*
X108579961Y-74256265D01*
X108579961Y-74256265D02*
X108627580Y-74351503D01*
X108627580Y-74351503D02*
X108627580Y-74589598D01*
X108627580Y-74589598D02*
X108579961Y-74732455D01*
X108151390Y-75161027D02*
X108151390Y-75494360D01*
X107627580Y-75637217D02*
X107627580Y-75161027D01*
X107627580Y-75161027D02*
X108627580Y-75161027D01*
X108627580Y-75161027D02*
X108627580Y-75637217D01*
X106756265Y-52586704D02*
X107232455Y-52586704D01*
X106661027Y-52872419D02*
X106994360Y-51872419D01*
X106994360Y-51872419D02*
X107327693Y-52872419D01*
X107994360Y-52348609D02*
X107661027Y-52348609D01*
X107661027Y-52872419D02*
X107661027Y-51872419D01*
X107661027Y-51872419D02*
X108137217Y-51872419D01*
X109041979Y-51920038D02*
X108946741Y-51872419D01*
X108946741Y-51872419D02*
X108803884Y-51872419D01*
X108803884Y-51872419D02*
X108661027Y-51920038D01*
X108661027Y-51920038D02*
X108565789Y-52015276D01*
X108565789Y-52015276D02*
X108518170Y-52110514D01*
X108518170Y-52110514D02*
X108470551Y-52300990D01*
X108470551Y-52300990D02*
X108470551Y-52443847D01*
X108470551Y-52443847D02*
X108518170Y-52634323D01*
X108518170Y-52634323D02*
X108565789Y-52729561D01*
X108565789Y-52729561D02*
X108661027Y-52824800D01*
X108661027Y-52824800D02*
X108803884Y-52872419D01*
X108803884Y-52872419D02*
X108899122Y-52872419D01*
X108899122Y-52872419D02*
X109041979Y-52824800D01*
X109041979Y-52824800D02*
X109089598Y-52777180D01*
X109089598Y-52777180D02*
X109089598Y-52443847D01*
X109089598Y-52443847D02*
X108899122Y-52443847D01*
X105827693Y-59420038D02*
X105732455Y-59372419D01*
X105732455Y-59372419D02*
X105589598Y-59372419D01*
X105589598Y-59372419D02*
X105446741Y-59420038D01*
X105446741Y-59420038D02*
X105351503Y-59515276D01*
X105351503Y-59515276D02*
X105303884Y-59610514D01*
X105303884Y-59610514D02*
X105256265Y-59800990D01*
X105256265Y-59800990D02*
X105256265Y-59943847D01*
X105256265Y-59943847D02*
X105303884Y-60134323D01*
X105303884Y-60134323D02*
X105351503Y-60229561D01*
X105351503Y-60229561D02*
X105446741Y-60324800D01*
X105446741Y-60324800D02*
X105589598Y-60372419D01*
X105589598Y-60372419D02*
X105684836Y-60372419D01*
X105684836Y-60372419D02*
X105827693Y-60324800D01*
X105827693Y-60324800D02*
X105875312Y-60277180D01*
X105875312Y-60277180D02*
X105875312Y-59943847D01*
X105875312Y-59943847D02*
X105684836Y-59943847D01*
X106303884Y-60372419D02*
X106303884Y-59372419D01*
X106303884Y-59372419D02*
X106875312Y-60372419D01*
X106875312Y-60372419D02*
X106875312Y-59372419D01*
X107351503Y-60372419D02*
X107351503Y-59372419D01*
X107351503Y-59372419D02*
X107589598Y-59372419D01*
X107589598Y-59372419D02*
X107732455Y-59420038D01*
X107732455Y-59420038D02*
X107827693Y-59515276D01*
X107827693Y-59515276D02*
X107875312Y-59610514D01*
X107875312Y-59610514D02*
X107922931Y-59800990D01*
X107922931Y-59800990D02*
X107922931Y-59943847D01*
X107922931Y-59943847D02*
X107875312Y-60134323D01*
X107875312Y-60134323D02*
X107827693Y-60229561D01*
X107827693Y-60229561D02*
X107732455Y-60324800D01*
X107732455Y-60324800D02*
X107589598Y-60372419D01*
X107589598Y-60372419D02*
X107351503Y-60372419D01*
X112208646Y-62372419D02*
X112446741Y-63372419D01*
X112446741Y-63372419D02*
X112637217Y-62658133D01*
X112637217Y-62658133D02*
X112827693Y-63372419D01*
X112827693Y-63372419D02*
X113065789Y-62372419D01*
X113446741Y-63372419D02*
X113446741Y-62372419D01*
X114494359Y-63372419D02*
X114161026Y-62896228D01*
X113922931Y-63372419D02*
X113922931Y-62372419D01*
X113922931Y-62372419D02*
X114303883Y-62372419D01*
X114303883Y-62372419D02*
X114399121Y-62420038D01*
X114399121Y-62420038D02*
X114446740Y-62467657D01*
X114446740Y-62467657D02*
X114494359Y-62562895D01*
X114494359Y-62562895D02*
X114494359Y-62705752D01*
X114494359Y-62705752D02*
X114446740Y-62800990D01*
X114446740Y-62800990D02*
X114399121Y-62848609D01*
X114399121Y-62848609D02*
X114303883Y-62896228D01*
X114303883Y-62896228D02*
X113922931Y-62896228D01*
X114922931Y-62848609D02*
X115256264Y-62848609D01*
X115399121Y-63372419D02*
X114922931Y-63372419D01*
X114922931Y-63372419D02*
X114922931Y-62372419D01*
X114922931Y-62372419D02*
X115399121Y-62372419D01*
D11*
X100333333Y-73954819D02*
X100000000Y-73478628D01*
X99761905Y-73954819D02*
X99761905Y-72954819D01*
X99761905Y-72954819D02*
X100142857Y-72954819D01*
X100142857Y-72954819D02*
X100238095Y-73002438D01*
X100238095Y-73002438D02*
X100285714Y-73050057D01*
X100285714Y-73050057D02*
X100333333Y-73145295D01*
X100333333Y-73145295D02*
X100333333Y-73288152D01*
X100333333Y-73288152D02*
X100285714Y-73383390D01*
X100285714Y-73383390D02*
X100238095Y-73431009D01*
X100238095Y-73431009D02*
X100142857Y-73478628D01*
X100142857Y-73478628D02*
X99761905Y-73478628D01*
X101285714Y-73954819D02*
X100714286Y-73954819D01*
X101000000Y-73954819D02*
X101000000Y-72954819D01*
X101000000Y-72954819D02*
X100904762Y-73097676D01*
X100904762Y-73097676D02*
X100809524Y-73192914D01*
X100809524Y-73192914D02*
X100714286Y-73240533D01*
X110454819Y-60833333D02*
X111169104Y-60833333D01*
X111169104Y-60833333D02*
X111311961Y-60880952D01*
X111311961Y-60880952D02*
X111407200Y-60976190D01*
X111407200Y-60976190D02*
X111454819Y-61119047D01*
X111454819Y-61119047D02*
X111454819Y-61214285D01*
X110454819Y-60452380D02*
X110454819Y-59833333D01*
X110454819Y-59833333D02*
X110835771Y-60166666D01*
X110835771Y-60166666D02*
X110835771Y-60023809D01*
X110835771Y-60023809D02*
X110883390Y-59928571D01*
X110883390Y-59928571D02*
X110931009Y-59880952D01*
X110931009Y-59880952D02*
X111026247Y-59833333D01*
X111026247Y-59833333D02*
X111264342Y-59833333D01*
X111264342Y-59833333D02*
X111359580Y-59880952D01*
X111359580Y-59880952D02*
X111407200Y-59928571D01*
X111407200Y-59928571D02*
X111454819Y-60023809D01*
X111454819Y-60023809D02*
X111454819Y-60309523D01*
X111454819Y-60309523D02*
X111407200Y-60404761D01*
X111407200Y-60404761D02*
X111359580Y-60452380D01*
X107666666Y-50454819D02*
X107666666Y-51169104D01*
X107666666Y-51169104D02*
X107619047Y-51311961D01*
X107619047Y-51311961D02*
X107523809Y-51407200D01*
X107523809Y-51407200D02*
X107380952Y-51454819D01*
X107380952Y-51454819D02*
X107285714Y-51454819D01*
X108666666Y-51454819D02*
X108095238Y-51454819D01*
X108380952Y-51454819D02*
X108380952Y-50454819D01*
X108380952Y-50454819D02*
X108285714Y-50597676D01*
X108285714Y-50597676D02*
X108190476Y-50692914D01*
X108190476Y-50692914D02*
X108095238Y-50740533D01*
X107666666Y-76954819D02*
X107666666Y-77669104D01*
X107666666Y-77669104D02*
X107619047Y-77811961D01*
X107619047Y-77811961D02*
X107523809Y-77907200D01*
X107523809Y-77907200D02*
X107380952Y-77954819D01*
X107380952Y-77954819D02*
X107285714Y-77954819D01*
X108095238Y-77050057D02*
X108142857Y-77002438D01*
X108142857Y-77002438D02*
X108238095Y-76954819D01*
X108238095Y-76954819D02*
X108476190Y-76954819D01*
X108476190Y-76954819D02*
X108571428Y-77002438D01*
X108571428Y-77002438D02*
X108619047Y-77050057D01*
X108619047Y-77050057D02*
X108666666Y-77145295D01*
X108666666Y-77145295D02*
X108666666Y-77240533D01*
X108666666Y-77240533D02*
X108619047Y-77383390D01*
X108619047Y-77383390D02*
X108047619Y-77954819D01*
X108047619Y-77954819D02*
X108666666Y-77954819D01*
X101109580Y-65666666D02*
X101157200Y-65714285D01*
X101157200Y-65714285D02*
X101204819Y-65857142D01*
X101204819Y-65857142D02*
X101204819Y-65952380D01*
X101204819Y-65952380D02*
X101157200Y-66095237D01*
X101157200Y-66095237D02*
X101061961Y-66190475D01*
X101061961Y-66190475D02*
X100966723Y-66238094D01*
X100966723Y-66238094D02*
X100776247Y-66285713D01*
X100776247Y-66285713D02*
X100633390Y-66285713D01*
X100633390Y-66285713D02*
X100442914Y-66238094D01*
X100442914Y-66238094D02*
X100347676Y-66190475D01*
X100347676Y-66190475D02*
X100252438Y-66095237D01*
X100252438Y-66095237D02*
X100204819Y-65952380D01*
X100204819Y-65952380D02*
X100204819Y-65857142D01*
X100204819Y-65857142D02*
X100252438Y-65714285D01*
X100252438Y-65714285D02*
X100300057Y-65666666D01*
X101204819Y-64714285D02*
X101204819Y-65285713D01*
X101204819Y-64999999D02*
X100204819Y-64999999D01*
X100204819Y-64999999D02*
X100347676Y-65095237D01*
X100347676Y-65095237D02*
X100442914Y-65190475D01*
X100442914Y-65190475D02*
X100490533Y-65285713D01*
X99454819Y-65666666D02*
X99454819Y-66142856D01*
X99454819Y-66142856D02*
X98454819Y-66142856D01*
X99454819Y-64809523D02*
X99454819Y-65380951D01*
X99454819Y-65095237D02*
X98454819Y-65095237D01*
X98454819Y-65095237D02*
X98597676Y-65190475D01*
X98597676Y-65190475D02*
X98692914Y-65285713D01*
X98692914Y-65285713D02*
X98740533Y-65380951D01*
D12*
%TO.C,R1*%
X97420000Y-74630000D02*
X97420000Y-74960000D01*
X97420000Y-77370000D02*
X97420000Y-77040000D01*
X103960000Y-74630000D02*
X97420000Y-74630000D01*
X103960000Y-74960000D02*
X103960000Y-74630000D01*
X103960000Y-77040000D02*
X103960000Y-77370000D01*
X103960000Y-77370000D02*
X97420000Y-77370000D01*
D13*
%TO.C,J3*%
X111900000Y-51000000D02*
X120100000Y-51000000D01*
X111900000Y-61000000D02*
X111900000Y-51000000D01*
X111900000Y-61600000D02*
X111900000Y-61000000D01*
X120100000Y-51000000D02*
X120100000Y-61000000D01*
X120100000Y-61000000D02*
X111900000Y-61000000D01*
X120100000Y-61600000D02*
X111900000Y-61600000D01*
X120100000Y-61600000D02*
X120100000Y-61000000D01*
D14*
X116100000Y-62350000D02*
G75*
G02*
X115900000Y-62350000I-100000J0D01*
G01*
X115900000Y-62350000D02*
G75*
G02*
X116100000Y-62350000I100000J0D01*
G01*
D13*
%TO.C,J1*%
X95400000Y-50400000D02*
X96000000Y-50400000D01*
X95400000Y-58600000D02*
X95400000Y-50400000D01*
X95400000Y-58600000D02*
X96000000Y-58600000D01*
X96000000Y-50400000D02*
X106000000Y-50400000D01*
X96000000Y-58600000D02*
X96000000Y-50400000D01*
X106000000Y-50400000D02*
X106000000Y-58600000D01*
X106000000Y-58600000D02*
X96000000Y-58600000D01*
D14*
X94750000Y-54500000D02*
G75*
G02*
X94550000Y-54500000I-100000J0D01*
G01*
X94550000Y-54500000D02*
G75*
G02*
X94750000Y-54500000I100000J0D01*
G01*
D13*
%TO.C,J2*%
X109900000Y-69400000D02*
X110500000Y-69400000D01*
X109900000Y-77600000D02*
X109900000Y-69400000D01*
X109900000Y-77600000D02*
X110500000Y-77600000D01*
X110500000Y-69400000D02*
X120500000Y-69400000D01*
X110500000Y-77600000D02*
X110500000Y-69400000D01*
X120500000Y-69400000D02*
X120500000Y-77600000D01*
X120500000Y-77600000D02*
X110500000Y-77600000D01*
D14*
X109250000Y-73500000D02*
G75*
G02*
X109050000Y-73500000I-100000J0D01*
G01*
X109050000Y-73500000D02*
G75*
G02*
X109250000Y-73500000I100000J0D01*
G01*
D12*
%TO.C,C1*%
X101880000Y-60880000D02*
X107120000Y-60880000D01*
X101880000Y-73620000D02*
X101880000Y-60880000D01*
X101880000Y-73620000D02*
X107120000Y-73620000D01*
X107120000Y-73620000D02*
X107120000Y-60880000D01*
%TO.C,L1*%
X96800000Y-63840000D02*
X96800000Y-65110000D01*
X96800000Y-71920000D02*
X96800000Y-70650000D01*
X98020000Y-65110000D02*
X95580000Y-65110000D01*
X95580000Y-70650000D01*
X98020000Y-70650000D01*
X98020000Y-65110000D01*
%TD*%
M02*
