%TF.GenerationSoftware,KiCad,Pcbnew,9.0.2*%
%TF.CreationDate,2025-06-02T11:29:15-03:00*%
%TF.ProjectId,PCB_Borneras,5043425f-426f-4726-9e65-7261732e6b69,rev?*%
%TF.SameCoordinates,Original*%
%TF.FileFunction,Legend,Bot*%
%TF.FilePolarity,Positive*%
%FSLAX46Y46*%
G04 Gerber Fmt 4.6, Leading zero omitted, Abs format (unit mm)*
G04 Created by KiCad (PCBNEW 9.0.2) date 2025-06-02 11:29:15*
%MOMM*%
%LPD*%
G01*
G04 APERTURE LIST*
%ADD10C,0.100000*%
%ADD11C,0.000000*%
G04 APERTURE END LIST*
D10*
X108967511Y-60756744D02*
X119467511Y-60756744D01*
X119467511Y-71256744D01*
X108967511Y-71256744D01*
X108967511Y-60756744D01*
X115330293Y-61605353D02*
X115663626Y-61605353D01*
X115663626Y-62129163D02*
X115663626Y-61129163D01*
X115663626Y-61129163D02*
X115187436Y-61129163D01*
X114330293Y-62129163D02*
X114806483Y-62129163D01*
X114806483Y-62129163D02*
X114806483Y-61129163D01*
X113996959Y-62129163D02*
X113996959Y-61462496D01*
X113996959Y-61129163D02*
X114044578Y-61176782D01*
X114044578Y-61176782D02*
X113996959Y-61224401D01*
X113996959Y-61224401D02*
X113949340Y-61176782D01*
X113949340Y-61176782D02*
X113996959Y-61129163D01*
X113996959Y-61129163D02*
X113996959Y-61224401D01*
X113520769Y-62129163D02*
X113520769Y-61129163D01*
X113520769Y-61129163D02*
X113139817Y-61129163D01*
X113139817Y-61129163D02*
X113044579Y-61176782D01*
X113044579Y-61176782D02*
X112996960Y-61224401D01*
X112996960Y-61224401D02*
X112949341Y-61319639D01*
X112949341Y-61319639D02*
X112949341Y-61462496D01*
X112949341Y-61462496D02*
X112996960Y-61557734D01*
X112996960Y-61557734D02*
X113044579Y-61605353D01*
X113044579Y-61605353D02*
X113139817Y-61652972D01*
X113139817Y-61652972D02*
X113520769Y-61652972D01*
X105942857Y-57282890D02*
X105828571Y-57320985D01*
X105828571Y-57320985D02*
X105638095Y-57320985D01*
X105638095Y-57320985D02*
X105561904Y-57282890D01*
X105561904Y-57282890D02*
X105523809Y-57244794D01*
X105523809Y-57244794D02*
X105485714Y-57168604D01*
X105485714Y-57168604D02*
X105485714Y-57092413D01*
X105485714Y-57092413D02*
X105523809Y-57016223D01*
X105523809Y-57016223D02*
X105561904Y-56978128D01*
X105561904Y-56978128D02*
X105638095Y-56940032D01*
X105638095Y-56940032D02*
X105790476Y-56901937D01*
X105790476Y-56901937D02*
X105866666Y-56863842D01*
X105866666Y-56863842D02*
X105904761Y-56825747D01*
X105904761Y-56825747D02*
X105942857Y-56749556D01*
X105942857Y-56749556D02*
X105942857Y-56673366D01*
X105942857Y-56673366D02*
X105904761Y-56597175D01*
X105904761Y-56597175D02*
X105866666Y-56559080D01*
X105866666Y-56559080D02*
X105790476Y-56520985D01*
X105790476Y-56520985D02*
X105599999Y-56520985D01*
X105599999Y-56520985D02*
X105485714Y-56559080D01*
X104799999Y-56787651D02*
X104799999Y-57320985D01*
X105142856Y-56787651D02*
X105142856Y-57206699D01*
X105142856Y-57206699D02*
X105104761Y-57282890D01*
X105104761Y-57282890D02*
X105028571Y-57320985D01*
X105028571Y-57320985D02*
X104914285Y-57320985D01*
X104914285Y-57320985D02*
X104838094Y-57282890D01*
X104838094Y-57282890D02*
X104799999Y-57244794D01*
X104419046Y-57320985D02*
X104419046Y-56787651D01*
X104419046Y-56940032D02*
X104380951Y-56863842D01*
X104380951Y-56863842D02*
X104342856Y-56825747D01*
X104342856Y-56825747D02*
X104266665Y-56787651D01*
X104266665Y-56787651D02*
X104190475Y-56787651D01*
X104038094Y-56787651D02*
X103733332Y-56787651D01*
X103923808Y-57320985D02*
X103923808Y-56635270D01*
X103923808Y-56635270D02*
X103885713Y-56559080D01*
X103885713Y-56559080D02*
X103809523Y-56520985D01*
X103809523Y-56520985D02*
X103733332Y-56520985D01*
X103123808Y-57320985D02*
X103123808Y-56901937D01*
X103123808Y-56901937D02*
X103161903Y-56825747D01*
X103161903Y-56825747D02*
X103238094Y-56787651D01*
X103238094Y-56787651D02*
X103390475Y-56787651D01*
X103390475Y-56787651D02*
X103466665Y-56825747D01*
X103123808Y-57282890D02*
X103199999Y-57320985D01*
X103199999Y-57320985D02*
X103390475Y-57320985D01*
X103390475Y-57320985D02*
X103466665Y-57282890D01*
X103466665Y-57282890D02*
X103504761Y-57206699D01*
X103504761Y-57206699D02*
X103504761Y-57130509D01*
X103504761Y-57130509D02*
X103466665Y-57054318D01*
X103466665Y-57054318D02*
X103390475Y-57016223D01*
X103390475Y-57016223D02*
X103199999Y-57016223D01*
X103199999Y-57016223D02*
X103123808Y-56978128D01*
X102399998Y-57282890D02*
X102476189Y-57320985D01*
X102476189Y-57320985D02*
X102628570Y-57320985D01*
X102628570Y-57320985D02*
X102704760Y-57282890D01*
X102704760Y-57282890D02*
X102742855Y-57244794D01*
X102742855Y-57244794D02*
X102780951Y-57168604D01*
X102780951Y-57168604D02*
X102780951Y-56940032D01*
X102780951Y-56940032D02*
X102742855Y-56863842D01*
X102742855Y-56863842D02*
X102704760Y-56825747D01*
X102704760Y-56825747D02*
X102628570Y-56787651D01*
X102628570Y-56787651D02*
X102476189Y-56787651D01*
X102476189Y-56787651D02*
X102399998Y-56825747D01*
X101752379Y-57282890D02*
X101828570Y-57320985D01*
X101828570Y-57320985D02*
X101980951Y-57320985D01*
X101980951Y-57320985D02*
X102057141Y-57282890D01*
X102057141Y-57282890D02*
X102095237Y-57206699D01*
X102095237Y-57206699D02*
X102095237Y-56901937D01*
X102095237Y-56901937D02*
X102057141Y-56825747D01*
X102057141Y-56825747D02*
X101980951Y-56787651D01*
X101980951Y-56787651D02*
X101828570Y-56787651D01*
X101828570Y-56787651D02*
X101752379Y-56825747D01*
X101752379Y-56825747D02*
X101714284Y-56901937D01*
X101714284Y-56901937D02*
X101714284Y-56978128D01*
X101714284Y-56978128D02*
X102095237Y-57054318D01*
X100380951Y-57320985D02*
X100761903Y-57320985D01*
X100761903Y-57320985D02*
X100761903Y-56520985D01*
X99809522Y-57282890D02*
X99885713Y-57320985D01*
X99885713Y-57320985D02*
X100038094Y-57320985D01*
X100038094Y-57320985D02*
X100114284Y-57282890D01*
X100114284Y-57282890D02*
X100152380Y-57206699D01*
X100152380Y-57206699D02*
X100152380Y-56901937D01*
X100152380Y-56901937D02*
X100114284Y-56825747D01*
X100114284Y-56825747D02*
X100038094Y-56787651D01*
X100038094Y-56787651D02*
X99885713Y-56787651D01*
X99885713Y-56787651D02*
X99809522Y-56825747D01*
X99809522Y-56825747D02*
X99771427Y-56901937D01*
X99771427Y-56901937D02*
X99771427Y-56978128D01*
X99771427Y-56978128D02*
X100152380Y-57054318D01*
X99504761Y-56787651D02*
X99314285Y-57320985D01*
X99314285Y-57320985D02*
X99123808Y-56787651D01*
X98514284Y-57282890D02*
X98590475Y-57320985D01*
X98590475Y-57320985D02*
X98742856Y-57320985D01*
X98742856Y-57320985D02*
X98819046Y-57282890D01*
X98819046Y-57282890D02*
X98857142Y-57206699D01*
X98857142Y-57206699D02*
X98857142Y-56901937D01*
X98857142Y-56901937D02*
X98819046Y-56825747D01*
X98819046Y-56825747D02*
X98742856Y-56787651D01*
X98742856Y-56787651D02*
X98590475Y-56787651D01*
X98590475Y-56787651D02*
X98514284Y-56825747D01*
X98514284Y-56825747D02*
X98476189Y-56901937D01*
X98476189Y-56901937D02*
X98476189Y-56978128D01*
X98476189Y-56978128D02*
X98857142Y-57054318D01*
X98019047Y-57320985D02*
X98095237Y-57282890D01*
X98095237Y-57282890D02*
X98133332Y-57206699D01*
X98133332Y-57206699D02*
X98133332Y-56520985D01*
X106761904Y-58532749D02*
X106800000Y-58570845D01*
X106800000Y-58570845D02*
X106914285Y-58608940D01*
X106914285Y-58608940D02*
X106990476Y-58608940D01*
X106990476Y-58608940D02*
X107104762Y-58570845D01*
X107104762Y-58570845D02*
X107180952Y-58494654D01*
X107180952Y-58494654D02*
X107219047Y-58418464D01*
X107219047Y-58418464D02*
X107257143Y-58266083D01*
X107257143Y-58266083D02*
X107257143Y-58151797D01*
X107257143Y-58151797D02*
X107219047Y-57999416D01*
X107219047Y-57999416D02*
X107180952Y-57923225D01*
X107180952Y-57923225D02*
X107104762Y-57847035D01*
X107104762Y-57847035D02*
X106990476Y-57808940D01*
X106990476Y-57808940D02*
X106914285Y-57808940D01*
X106914285Y-57808940D02*
X106800000Y-57847035D01*
X106800000Y-57847035D02*
X106761904Y-57885130D01*
X106076190Y-58608940D02*
X106076190Y-58189892D01*
X106076190Y-58189892D02*
X106114285Y-58113702D01*
X106114285Y-58113702D02*
X106190476Y-58075606D01*
X106190476Y-58075606D02*
X106342857Y-58075606D01*
X106342857Y-58075606D02*
X106419047Y-58113702D01*
X106076190Y-58570845D02*
X106152381Y-58608940D01*
X106152381Y-58608940D02*
X106342857Y-58608940D01*
X106342857Y-58608940D02*
X106419047Y-58570845D01*
X106419047Y-58570845D02*
X106457143Y-58494654D01*
X106457143Y-58494654D02*
X106457143Y-58418464D01*
X106457143Y-58418464D02*
X106419047Y-58342273D01*
X106419047Y-58342273D02*
X106342857Y-58304178D01*
X106342857Y-58304178D02*
X106152381Y-58304178D01*
X106152381Y-58304178D02*
X106076190Y-58266083D01*
X105695237Y-58075606D02*
X105695237Y-58875606D01*
X105695237Y-58113702D02*
X105619047Y-58075606D01*
X105619047Y-58075606D02*
X105466666Y-58075606D01*
X105466666Y-58075606D02*
X105390475Y-58113702D01*
X105390475Y-58113702D02*
X105352380Y-58151797D01*
X105352380Y-58151797D02*
X105314285Y-58227987D01*
X105314285Y-58227987D02*
X105314285Y-58456559D01*
X105314285Y-58456559D02*
X105352380Y-58532749D01*
X105352380Y-58532749D02*
X105390475Y-58570845D01*
X105390475Y-58570845D02*
X105466666Y-58608940D01*
X105466666Y-58608940D02*
X105619047Y-58608940D01*
X105619047Y-58608940D02*
X105695237Y-58570845D01*
X104628570Y-58608940D02*
X104628570Y-58189892D01*
X104628570Y-58189892D02*
X104666665Y-58113702D01*
X104666665Y-58113702D02*
X104742856Y-58075606D01*
X104742856Y-58075606D02*
X104895237Y-58075606D01*
X104895237Y-58075606D02*
X104971427Y-58113702D01*
X104628570Y-58570845D02*
X104704761Y-58608940D01*
X104704761Y-58608940D02*
X104895237Y-58608940D01*
X104895237Y-58608940D02*
X104971427Y-58570845D01*
X104971427Y-58570845D02*
X105009523Y-58494654D01*
X105009523Y-58494654D02*
X105009523Y-58418464D01*
X105009523Y-58418464D02*
X104971427Y-58342273D01*
X104971427Y-58342273D02*
X104895237Y-58304178D01*
X104895237Y-58304178D02*
X104704761Y-58304178D01*
X104704761Y-58304178D02*
X104628570Y-58266083D01*
X103904760Y-58570845D02*
X103980951Y-58608940D01*
X103980951Y-58608940D02*
X104133332Y-58608940D01*
X104133332Y-58608940D02*
X104209522Y-58570845D01*
X104209522Y-58570845D02*
X104247617Y-58532749D01*
X104247617Y-58532749D02*
X104285713Y-58456559D01*
X104285713Y-58456559D02*
X104285713Y-58227987D01*
X104285713Y-58227987D02*
X104247617Y-58151797D01*
X104247617Y-58151797D02*
X104209522Y-58113702D01*
X104209522Y-58113702D02*
X104133332Y-58075606D01*
X104133332Y-58075606D02*
X103980951Y-58075606D01*
X103980951Y-58075606D02*
X103904760Y-58113702D01*
X103561903Y-58608940D02*
X103561903Y-58075606D01*
X103561903Y-57808940D02*
X103599999Y-57847035D01*
X103599999Y-57847035D02*
X103561903Y-57885130D01*
X103561903Y-57885130D02*
X103523808Y-57847035D01*
X103523808Y-57847035D02*
X103561903Y-57808940D01*
X103561903Y-57808940D02*
X103561903Y-57885130D01*
X103295237Y-58075606D02*
X102990475Y-58075606D01*
X103180951Y-57808940D02*
X103180951Y-58494654D01*
X103180951Y-58494654D02*
X103142856Y-58570845D01*
X103142856Y-58570845D02*
X103066666Y-58608940D01*
X103066666Y-58608940D02*
X102990475Y-58608940D01*
X102723808Y-58608940D02*
X102723808Y-58075606D01*
X102723808Y-57808940D02*
X102761904Y-57847035D01*
X102761904Y-57847035D02*
X102723808Y-57885130D01*
X102723808Y-57885130D02*
X102685713Y-57847035D01*
X102685713Y-57847035D02*
X102723808Y-57808940D01*
X102723808Y-57808940D02*
X102723808Y-57885130D01*
X102419047Y-58075606D02*
X102228571Y-58608940D01*
X102228571Y-58608940D02*
X102038094Y-58075606D01*
X101428570Y-58570845D02*
X101504761Y-58608940D01*
X101504761Y-58608940D02*
X101657142Y-58608940D01*
X101657142Y-58608940D02*
X101733332Y-58570845D01*
X101733332Y-58570845D02*
X101771428Y-58494654D01*
X101771428Y-58494654D02*
X101771428Y-58189892D01*
X101771428Y-58189892D02*
X101733332Y-58113702D01*
X101733332Y-58113702D02*
X101657142Y-58075606D01*
X101657142Y-58075606D02*
X101504761Y-58075606D01*
X101504761Y-58075606D02*
X101428570Y-58113702D01*
X101428570Y-58113702D02*
X101390475Y-58189892D01*
X101390475Y-58189892D02*
X101390475Y-58266083D01*
X101390475Y-58266083D02*
X101771428Y-58342273D01*
X100476190Y-58570845D02*
X100361904Y-58608940D01*
X100361904Y-58608940D02*
X100171428Y-58608940D01*
X100171428Y-58608940D02*
X100095237Y-58570845D01*
X100095237Y-58570845D02*
X100057142Y-58532749D01*
X100057142Y-58532749D02*
X100019047Y-58456559D01*
X100019047Y-58456559D02*
X100019047Y-58380368D01*
X100019047Y-58380368D02*
X100057142Y-58304178D01*
X100057142Y-58304178D02*
X100095237Y-58266083D01*
X100095237Y-58266083D02*
X100171428Y-58227987D01*
X100171428Y-58227987D02*
X100323809Y-58189892D01*
X100323809Y-58189892D02*
X100399999Y-58151797D01*
X100399999Y-58151797D02*
X100438094Y-58113702D01*
X100438094Y-58113702D02*
X100476190Y-58037511D01*
X100476190Y-58037511D02*
X100476190Y-57961321D01*
X100476190Y-57961321D02*
X100438094Y-57885130D01*
X100438094Y-57885130D02*
X100399999Y-57847035D01*
X100399999Y-57847035D02*
X100323809Y-57808940D01*
X100323809Y-57808940D02*
X100133332Y-57808940D01*
X100133332Y-57808940D02*
X100019047Y-57847035D01*
X99371427Y-58570845D02*
X99447618Y-58608940D01*
X99447618Y-58608940D02*
X99599999Y-58608940D01*
X99599999Y-58608940D02*
X99676189Y-58570845D01*
X99676189Y-58570845D02*
X99714285Y-58494654D01*
X99714285Y-58494654D02*
X99714285Y-58189892D01*
X99714285Y-58189892D02*
X99676189Y-58113702D01*
X99676189Y-58113702D02*
X99599999Y-58075606D01*
X99599999Y-58075606D02*
X99447618Y-58075606D01*
X99447618Y-58075606D02*
X99371427Y-58113702D01*
X99371427Y-58113702D02*
X99333332Y-58189892D01*
X99333332Y-58189892D02*
X99333332Y-58266083D01*
X99333332Y-58266083D02*
X99714285Y-58342273D01*
X98990475Y-58075606D02*
X98990475Y-58608940D01*
X98990475Y-58151797D02*
X98952380Y-58113702D01*
X98952380Y-58113702D02*
X98876190Y-58075606D01*
X98876190Y-58075606D02*
X98761904Y-58075606D01*
X98761904Y-58075606D02*
X98685713Y-58113702D01*
X98685713Y-58113702D02*
X98647618Y-58189892D01*
X98647618Y-58189892D02*
X98647618Y-58608940D01*
X98304761Y-58570845D02*
X98228570Y-58608940D01*
X98228570Y-58608940D02*
X98076189Y-58608940D01*
X98076189Y-58608940D02*
X97999999Y-58570845D01*
X97999999Y-58570845D02*
X97961903Y-58494654D01*
X97961903Y-58494654D02*
X97961903Y-58456559D01*
X97961903Y-58456559D02*
X97999999Y-58380368D01*
X97999999Y-58380368D02*
X98076189Y-58342273D01*
X98076189Y-58342273D02*
X98190475Y-58342273D01*
X98190475Y-58342273D02*
X98266665Y-58304178D01*
X98266665Y-58304178D02*
X98304761Y-58227987D01*
X98304761Y-58227987D02*
X98304761Y-58189892D01*
X98304761Y-58189892D02*
X98266665Y-58113702D01*
X98266665Y-58113702D02*
X98190475Y-58075606D01*
X98190475Y-58075606D02*
X98076189Y-58075606D01*
X98076189Y-58075606D02*
X97999999Y-58113702D01*
X97504761Y-58608940D02*
X97580951Y-58570845D01*
X97580951Y-58570845D02*
X97619046Y-58532749D01*
X97619046Y-58532749D02*
X97657142Y-58456559D01*
X97657142Y-58456559D02*
X97657142Y-58227987D01*
X97657142Y-58227987D02*
X97619046Y-58151797D01*
X97619046Y-58151797D02*
X97580951Y-58113702D01*
X97580951Y-58113702D02*
X97504761Y-58075606D01*
X97504761Y-58075606D02*
X97390475Y-58075606D01*
X97390475Y-58075606D02*
X97314284Y-58113702D01*
X97314284Y-58113702D02*
X97276189Y-58151797D01*
X97276189Y-58151797D02*
X97238094Y-58227987D01*
X97238094Y-58227987D02*
X97238094Y-58456559D01*
X97238094Y-58456559D02*
X97276189Y-58532749D01*
X97276189Y-58532749D02*
X97314284Y-58570845D01*
X97314284Y-58570845D02*
X97390475Y-58608940D01*
X97390475Y-58608940D02*
X97504761Y-58608940D01*
X96895236Y-58608940D02*
X96895236Y-58075606D01*
X96895236Y-58227987D02*
X96857141Y-58151797D01*
X96857141Y-58151797D02*
X96819046Y-58113702D01*
X96819046Y-58113702D02*
X96742855Y-58075606D01*
X96742855Y-58075606D02*
X96666665Y-58075606D01*
X102761904Y-59363561D02*
X102571428Y-59896895D01*
X102571428Y-59896895D02*
X102380951Y-59363561D01*
X102076189Y-59820704D02*
X102038094Y-59858800D01*
X102038094Y-59858800D02*
X102076189Y-59896895D01*
X102076189Y-59896895D02*
X102114285Y-59858800D01*
X102114285Y-59858800D02*
X102076189Y-59820704D01*
X102076189Y-59820704D02*
X102076189Y-59896895D01*
X101276190Y-59896895D02*
X101733333Y-59896895D01*
X101504761Y-59896895D02*
X101504761Y-59096895D01*
X101504761Y-59096895D02*
X101580952Y-59211180D01*
X101580952Y-59211180D02*
X101657142Y-59287371D01*
X101657142Y-59287371D02*
X101733333Y-59325466D01*
D11*
%TO.C,G\u002A\u002A\u002A*%
G36*
X115037997Y-62728865D02*
G01*
X118259720Y-62740280D01*
X118271276Y-64871080D01*
X118282833Y-67001881D01*
X117759718Y-66472037D01*
X117660940Y-66373323D01*
X117342662Y-66077849D01*
X117047104Y-65844703D01*
X116757042Y-65662672D01*
X116455254Y-65520536D01*
X116124519Y-65407081D01*
X115920113Y-65354648D01*
X115523428Y-65287499D01*
X115118941Y-65258008D01*
X114735374Y-65267660D01*
X114401451Y-65317943D01*
X114221445Y-65367293D01*
X113824339Y-65523884D01*
X113458140Y-65733036D01*
X113137205Y-65984245D01*
X112875894Y-66267011D01*
X112688564Y-66570832D01*
X112641525Y-66676851D01*
X112601673Y-66794059D01*
X112578943Y-66918898D01*
X112568810Y-67078457D01*
X112566745Y-67299825D01*
X112568577Y-67487522D01*
X112577032Y-67652062D01*
X112596388Y-67773773D01*
X112630960Y-67877807D01*
X112685067Y-67989317D01*
X112785674Y-68144851D01*
X112924499Y-68310694D01*
X113082153Y-68467358D01*
X113241136Y-68598945D01*
X113383945Y-68689556D01*
X113493078Y-68723292D01*
X113504935Y-68723012D01*
X113552448Y-68706603D01*
X113557943Y-68655469D01*
X113519020Y-68556483D01*
X113433275Y-68396517D01*
X113361922Y-68255432D01*
X113313026Y-68092536D01*
X113299825Y-67903476D01*
X113304841Y-67790909D01*
X113365631Y-67530557D01*
X113499141Y-67308551D01*
X113710083Y-67118531D01*
X114003168Y-66954136D01*
X114128564Y-66901642D01*
X114254171Y-66868175D01*
X114395847Y-66857522D01*
X114589650Y-66864150D01*
X114627091Y-66866746D01*
X114980601Y-66934533D01*
X115304736Y-67072991D01*
X115586290Y-67272959D01*
X115812056Y-67525276D01*
X115968827Y-67820782D01*
X116030526Y-68034007D01*
X116060702Y-68391807D01*
X116006886Y-68762316D01*
X115869705Y-69137206D01*
X115699567Y-69450099D01*
X115405514Y-69846794D01*
X115054709Y-70175858D01*
X114645814Y-70438274D01*
X114177491Y-70635023D01*
X113648401Y-70767087D01*
X113447821Y-70790121D01*
X113146190Y-70796040D01*
X112820548Y-70778293D01*
X112504643Y-70738952D01*
X112232224Y-70680089D01*
X111960092Y-70586856D01*
X111624075Y-70437776D01*
X111290471Y-70258633D01*
X110987639Y-70064831D01*
X110743938Y-69871771D01*
X110530589Y-69656573D01*
X110214707Y-69239166D01*
X109968798Y-68767084D01*
X109792990Y-68240662D01*
X109687411Y-67660235D01*
X109652189Y-67026135D01*
X109656156Y-66792631D01*
X109681602Y-66443971D01*
X109735044Y-66105626D01*
X109821607Y-65748265D01*
X109946416Y-65342557D01*
X110096681Y-64953738D01*
X110327226Y-64504615D01*
X110622367Y-64054115D01*
X110988478Y-63592660D01*
X111431932Y-63110674D01*
X111816274Y-62717449D01*
X115037997Y-62728865D01*
G37*
%TD*%
M02*
