%TF.GenerationSoftware,KiCad,Pcbnew,9.0.2*%
%TF.CreationDate,2025-06-02T11:27:28-03:00*%
%TF.ProjectId,PCB_BNC,5043425f-424e-4432-9e6b-696361645f70,rev?*%
%TF.SameCoordinates,Original*%
%TF.FileFunction,Copper,L1,Top*%
%TF.FilePolarity,Positive*%
%FSLAX46Y46*%
G04 Gerber Fmt 4.6, Leading zero omitted, Abs format (unit mm)*
G04 Created by KiCad (PCBNEW 9.0.2) date 2025-06-02 11:27:28*
%MOMM*%
%LPD*%
G01*
G04 APERTURE LIST*
%TA.AperFunction,ComponentPad*%
%ADD10R,1.398000X1.398000*%
%TD*%
%TA.AperFunction,ComponentPad*%
%ADD11C,1.398000*%
%TD*%
%TA.AperFunction,ComponentPad*%
%ADD12C,1.600000*%
%TD*%
%TA.AperFunction,ComponentPad*%
%ADD13C,2.000000*%
%TD*%
%TA.AperFunction,Conductor*%
%ADD14C,0.200000*%
%TD*%
G04 APERTURE END LIST*
D10*
%TO.P,J1,1*%
%TO.N,Net-(J1-Pad1)*%
X143000000Y-50500000D03*
D11*
%TO.P,J1,2*%
%TO.N,Net-(C1-Pad2)*%
X140460000Y-50500000D03*
%TD*%
D10*
%TO.P,J2,1*%
%TO.N,Net-(C1-Pad2)*%
X128500000Y-46000000D03*
D11*
%TO.P,J2,2*%
%TO.N,Net-(C1-Pad1)*%
X128500000Y-48540000D03*
%TD*%
D12*
%TO.P,L1,1,1*%
%TO.N,Net-(J1-Pad1)*%
X148000000Y-55000000D03*
%TO.P,L1,2,2*%
%TO.N,Net-(J3-Pad2)*%
X148000000Y-65160000D03*
%TD*%
D10*
%TO.P,J3,1*%
%TO.N,Net-(C1-Pad1)*%
X122500000Y-58500000D03*
D11*
%TO.P,J3,2*%
%TO.N,Net-(J3-Pad2)*%
X125040000Y-58500000D03*
%TD*%
D12*
%TO.P,R1,1*%
%TO.N,Net-(J3-Pad2)*%
X148000000Y-69500000D03*
%TO.P,R1,2*%
%TO.N,Net-(C1-Pad1)*%
X140380000Y-69500000D03*
%TD*%
D13*
%TO.P,C1,1*%
%TO.N,Net-(C1-Pad1)*%
X140500000Y-64000000D03*
%TO.P,C1,2*%
%TO.N,Net-(C1-Pad2)*%
X140500000Y-56500000D03*
%TD*%
D14*
%TO.N,Net-(C1-Pad1)*%
X128500000Y-55500000D02*
X128500000Y-48540000D01*
X122500000Y-55500000D02*
X128500000Y-55500000D01*
X140500000Y-69380000D02*
X140380000Y-69500000D01*
X140500000Y-64000000D02*
X140500000Y-69380000D01*
X122500000Y-69500000D02*
X140380000Y-69500000D01*
X122500000Y-58500000D02*
X122500000Y-55500000D01*
X122500000Y-58500000D02*
X122500000Y-69500000D01*
%TO.N,Net-(C1-Pad2)*%
X132500000Y-46000000D02*
X132500000Y-50500000D01*
X128500000Y-46000000D02*
X132500000Y-46000000D01*
X132500000Y-50500000D02*
X140460000Y-50500000D01*
X140460000Y-56460000D02*
X140500000Y-56500000D01*
X140460000Y-50500000D02*
X140460000Y-56460000D01*
%TO.N,Net-(J1-Pad1)*%
X148000000Y-55000000D02*
X148000000Y-50500000D01*
X148000000Y-50500000D02*
X143000000Y-50500000D01*
%TO.N,Net-(J3-Pad2)*%
X134000000Y-60500000D02*
X144500000Y-60500000D01*
X145160000Y-65160000D02*
X148000000Y-65160000D01*
X125040000Y-58500000D02*
X134000000Y-58500000D01*
X144500000Y-60500000D02*
X144500000Y-65000000D01*
X134000000Y-58500000D02*
X134000000Y-60500000D01*
X148000000Y-69500000D02*
X148000000Y-65160000D01*
X144500000Y-65000000D02*
X145160000Y-65160000D01*
%TD*%
M02*
