%TF.GenerationSoftware,KiCad,Pcbnew,9.0.2*%
%TF.CreationDate,2025-06-02T11:27:28-03:00*%
%TF.ProjectId,PCB_BNC,5043425f-424e-4432-9e6b-696361645f70,rev?*%
%TF.SameCoordinates,Original*%
%TF.FileFunction,Legend,Bot*%
%TF.FilePolarity,Positive*%
%FSLAX46Y46*%
G04 Gerber Fmt 4.6, Leading zero omitted, Abs format (unit mm)*
G04 Created by KiCad (PCBNEW 9.0.2) date 2025-06-02 11:27:28*
%MOMM*%
%LPD*%
G01*
G04 APERTURE LIST*
%ADD10C,0.100000*%
%ADD11C,0.000000*%
G04 APERTURE END LIST*
D10*
X128032489Y-50756744D02*
X138532489Y-50756744D01*
X138532489Y-61256744D01*
X128032489Y-61256744D01*
X128032489Y-50756744D01*
X134862782Y-51848609D02*
X135196115Y-51848609D01*
X135196115Y-52372419D02*
X135196115Y-51372419D01*
X135196115Y-51372419D02*
X134719925Y-51372419D01*
X133862782Y-52372419D02*
X134338972Y-52372419D01*
X134338972Y-52372419D02*
X134338972Y-51372419D01*
X133529448Y-52372419D02*
X133529448Y-51705752D01*
X133529448Y-51372419D02*
X133577067Y-51420038D01*
X133577067Y-51420038D02*
X133529448Y-51467657D01*
X133529448Y-51467657D02*
X133481829Y-51420038D01*
X133481829Y-51420038D02*
X133529448Y-51372419D01*
X133529448Y-51372419D02*
X133529448Y-51467657D01*
X133053258Y-52372419D02*
X133053258Y-51372419D01*
X133053258Y-51372419D02*
X132672306Y-51372419D01*
X132672306Y-51372419D02*
X132577068Y-51420038D01*
X132577068Y-51420038D02*
X132529449Y-51467657D01*
X132529449Y-51467657D02*
X132481830Y-51562895D01*
X132481830Y-51562895D02*
X132481830Y-51705752D01*
X132481830Y-51705752D02*
X132529449Y-51800990D01*
X132529449Y-51800990D02*
X132577068Y-51848609D01*
X132577068Y-51848609D02*
X132672306Y-51896228D01*
X132672306Y-51896228D02*
X133053258Y-51896228D01*
X146942857Y-40782890D02*
X146828571Y-40820985D01*
X146828571Y-40820985D02*
X146638095Y-40820985D01*
X146638095Y-40820985D02*
X146561904Y-40782890D01*
X146561904Y-40782890D02*
X146523809Y-40744794D01*
X146523809Y-40744794D02*
X146485714Y-40668604D01*
X146485714Y-40668604D02*
X146485714Y-40592413D01*
X146485714Y-40592413D02*
X146523809Y-40516223D01*
X146523809Y-40516223D02*
X146561904Y-40478128D01*
X146561904Y-40478128D02*
X146638095Y-40440032D01*
X146638095Y-40440032D02*
X146790476Y-40401937D01*
X146790476Y-40401937D02*
X146866666Y-40363842D01*
X146866666Y-40363842D02*
X146904761Y-40325747D01*
X146904761Y-40325747D02*
X146942857Y-40249556D01*
X146942857Y-40249556D02*
X146942857Y-40173366D01*
X146942857Y-40173366D02*
X146904761Y-40097175D01*
X146904761Y-40097175D02*
X146866666Y-40059080D01*
X146866666Y-40059080D02*
X146790476Y-40020985D01*
X146790476Y-40020985D02*
X146599999Y-40020985D01*
X146599999Y-40020985D02*
X146485714Y-40059080D01*
X145799999Y-40287651D02*
X145799999Y-40820985D01*
X146142856Y-40287651D02*
X146142856Y-40706699D01*
X146142856Y-40706699D02*
X146104761Y-40782890D01*
X146104761Y-40782890D02*
X146028571Y-40820985D01*
X146028571Y-40820985D02*
X145914285Y-40820985D01*
X145914285Y-40820985D02*
X145838094Y-40782890D01*
X145838094Y-40782890D02*
X145799999Y-40744794D01*
X145419046Y-40820985D02*
X145419046Y-40287651D01*
X145419046Y-40440032D02*
X145380951Y-40363842D01*
X145380951Y-40363842D02*
X145342856Y-40325747D01*
X145342856Y-40325747D02*
X145266665Y-40287651D01*
X145266665Y-40287651D02*
X145190475Y-40287651D01*
X145038094Y-40287651D02*
X144733332Y-40287651D01*
X144923808Y-40820985D02*
X144923808Y-40135270D01*
X144923808Y-40135270D02*
X144885713Y-40059080D01*
X144885713Y-40059080D02*
X144809523Y-40020985D01*
X144809523Y-40020985D02*
X144733332Y-40020985D01*
X144123808Y-40820985D02*
X144123808Y-40401937D01*
X144123808Y-40401937D02*
X144161903Y-40325747D01*
X144161903Y-40325747D02*
X144238094Y-40287651D01*
X144238094Y-40287651D02*
X144390475Y-40287651D01*
X144390475Y-40287651D02*
X144466665Y-40325747D01*
X144123808Y-40782890D02*
X144199999Y-40820985D01*
X144199999Y-40820985D02*
X144390475Y-40820985D01*
X144390475Y-40820985D02*
X144466665Y-40782890D01*
X144466665Y-40782890D02*
X144504761Y-40706699D01*
X144504761Y-40706699D02*
X144504761Y-40630509D01*
X144504761Y-40630509D02*
X144466665Y-40554318D01*
X144466665Y-40554318D02*
X144390475Y-40516223D01*
X144390475Y-40516223D02*
X144199999Y-40516223D01*
X144199999Y-40516223D02*
X144123808Y-40478128D01*
X143399998Y-40782890D02*
X143476189Y-40820985D01*
X143476189Y-40820985D02*
X143628570Y-40820985D01*
X143628570Y-40820985D02*
X143704760Y-40782890D01*
X143704760Y-40782890D02*
X143742855Y-40744794D01*
X143742855Y-40744794D02*
X143780951Y-40668604D01*
X143780951Y-40668604D02*
X143780951Y-40440032D01*
X143780951Y-40440032D02*
X143742855Y-40363842D01*
X143742855Y-40363842D02*
X143704760Y-40325747D01*
X143704760Y-40325747D02*
X143628570Y-40287651D01*
X143628570Y-40287651D02*
X143476189Y-40287651D01*
X143476189Y-40287651D02*
X143399998Y-40325747D01*
X142752379Y-40782890D02*
X142828570Y-40820985D01*
X142828570Y-40820985D02*
X142980951Y-40820985D01*
X142980951Y-40820985D02*
X143057141Y-40782890D01*
X143057141Y-40782890D02*
X143095237Y-40706699D01*
X143095237Y-40706699D02*
X143095237Y-40401937D01*
X143095237Y-40401937D02*
X143057141Y-40325747D01*
X143057141Y-40325747D02*
X142980951Y-40287651D01*
X142980951Y-40287651D02*
X142828570Y-40287651D01*
X142828570Y-40287651D02*
X142752379Y-40325747D01*
X142752379Y-40325747D02*
X142714284Y-40401937D01*
X142714284Y-40401937D02*
X142714284Y-40478128D01*
X142714284Y-40478128D02*
X143095237Y-40554318D01*
X141380951Y-40820985D02*
X141761903Y-40820985D01*
X141761903Y-40820985D02*
X141761903Y-40020985D01*
X140809522Y-40782890D02*
X140885713Y-40820985D01*
X140885713Y-40820985D02*
X141038094Y-40820985D01*
X141038094Y-40820985D02*
X141114284Y-40782890D01*
X141114284Y-40782890D02*
X141152380Y-40706699D01*
X141152380Y-40706699D02*
X141152380Y-40401937D01*
X141152380Y-40401937D02*
X141114284Y-40325747D01*
X141114284Y-40325747D02*
X141038094Y-40287651D01*
X141038094Y-40287651D02*
X140885713Y-40287651D01*
X140885713Y-40287651D02*
X140809522Y-40325747D01*
X140809522Y-40325747D02*
X140771427Y-40401937D01*
X140771427Y-40401937D02*
X140771427Y-40478128D01*
X140771427Y-40478128D02*
X141152380Y-40554318D01*
X140504761Y-40287651D02*
X140314285Y-40820985D01*
X140314285Y-40820985D02*
X140123808Y-40287651D01*
X139514284Y-40782890D02*
X139590475Y-40820985D01*
X139590475Y-40820985D02*
X139742856Y-40820985D01*
X139742856Y-40820985D02*
X139819046Y-40782890D01*
X139819046Y-40782890D02*
X139857142Y-40706699D01*
X139857142Y-40706699D02*
X139857142Y-40401937D01*
X139857142Y-40401937D02*
X139819046Y-40325747D01*
X139819046Y-40325747D02*
X139742856Y-40287651D01*
X139742856Y-40287651D02*
X139590475Y-40287651D01*
X139590475Y-40287651D02*
X139514284Y-40325747D01*
X139514284Y-40325747D02*
X139476189Y-40401937D01*
X139476189Y-40401937D02*
X139476189Y-40478128D01*
X139476189Y-40478128D02*
X139857142Y-40554318D01*
X139019047Y-40820985D02*
X139095237Y-40782890D01*
X139095237Y-40782890D02*
X139133332Y-40706699D01*
X139133332Y-40706699D02*
X139133332Y-40020985D01*
X147761904Y-42032749D02*
X147800000Y-42070845D01*
X147800000Y-42070845D02*
X147914285Y-42108940D01*
X147914285Y-42108940D02*
X147990476Y-42108940D01*
X147990476Y-42108940D02*
X148104762Y-42070845D01*
X148104762Y-42070845D02*
X148180952Y-41994654D01*
X148180952Y-41994654D02*
X148219047Y-41918464D01*
X148219047Y-41918464D02*
X148257143Y-41766083D01*
X148257143Y-41766083D02*
X148257143Y-41651797D01*
X148257143Y-41651797D02*
X148219047Y-41499416D01*
X148219047Y-41499416D02*
X148180952Y-41423225D01*
X148180952Y-41423225D02*
X148104762Y-41347035D01*
X148104762Y-41347035D02*
X147990476Y-41308940D01*
X147990476Y-41308940D02*
X147914285Y-41308940D01*
X147914285Y-41308940D02*
X147800000Y-41347035D01*
X147800000Y-41347035D02*
X147761904Y-41385130D01*
X147076190Y-42108940D02*
X147076190Y-41689892D01*
X147076190Y-41689892D02*
X147114285Y-41613702D01*
X147114285Y-41613702D02*
X147190476Y-41575606D01*
X147190476Y-41575606D02*
X147342857Y-41575606D01*
X147342857Y-41575606D02*
X147419047Y-41613702D01*
X147076190Y-42070845D02*
X147152381Y-42108940D01*
X147152381Y-42108940D02*
X147342857Y-42108940D01*
X147342857Y-42108940D02*
X147419047Y-42070845D01*
X147419047Y-42070845D02*
X147457143Y-41994654D01*
X147457143Y-41994654D02*
X147457143Y-41918464D01*
X147457143Y-41918464D02*
X147419047Y-41842273D01*
X147419047Y-41842273D02*
X147342857Y-41804178D01*
X147342857Y-41804178D02*
X147152381Y-41804178D01*
X147152381Y-41804178D02*
X147076190Y-41766083D01*
X146695237Y-41575606D02*
X146695237Y-42375606D01*
X146695237Y-41613702D02*
X146619047Y-41575606D01*
X146619047Y-41575606D02*
X146466666Y-41575606D01*
X146466666Y-41575606D02*
X146390475Y-41613702D01*
X146390475Y-41613702D02*
X146352380Y-41651797D01*
X146352380Y-41651797D02*
X146314285Y-41727987D01*
X146314285Y-41727987D02*
X146314285Y-41956559D01*
X146314285Y-41956559D02*
X146352380Y-42032749D01*
X146352380Y-42032749D02*
X146390475Y-42070845D01*
X146390475Y-42070845D02*
X146466666Y-42108940D01*
X146466666Y-42108940D02*
X146619047Y-42108940D01*
X146619047Y-42108940D02*
X146695237Y-42070845D01*
X145628570Y-42108940D02*
X145628570Y-41689892D01*
X145628570Y-41689892D02*
X145666665Y-41613702D01*
X145666665Y-41613702D02*
X145742856Y-41575606D01*
X145742856Y-41575606D02*
X145895237Y-41575606D01*
X145895237Y-41575606D02*
X145971427Y-41613702D01*
X145628570Y-42070845D02*
X145704761Y-42108940D01*
X145704761Y-42108940D02*
X145895237Y-42108940D01*
X145895237Y-42108940D02*
X145971427Y-42070845D01*
X145971427Y-42070845D02*
X146009523Y-41994654D01*
X146009523Y-41994654D02*
X146009523Y-41918464D01*
X146009523Y-41918464D02*
X145971427Y-41842273D01*
X145971427Y-41842273D02*
X145895237Y-41804178D01*
X145895237Y-41804178D02*
X145704761Y-41804178D01*
X145704761Y-41804178D02*
X145628570Y-41766083D01*
X144904760Y-42070845D02*
X144980951Y-42108940D01*
X144980951Y-42108940D02*
X145133332Y-42108940D01*
X145133332Y-42108940D02*
X145209522Y-42070845D01*
X145209522Y-42070845D02*
X145247617Y-42032749D01*
X145247617Y-42032749D02*
X145285713Y-41956559D01*
X145285713Y-41956559D02*
X145285713Y-41727987D01*
X145285713Y-41727987D02*
X145247617Y-41651797D01*
X145247617Y-41651797D02*
X145209522Y-41613702D01*
X145209522Y-41613702D02*
X145133332Y-41575606D01*
X145133332Y-41575606D02*
X144980951Y-41575606D01*
X144980951Y-41575606D02*
X144904760Y-41613702D01*
X144561903Y-42108940D02*
X144561903Y-41575606D01*
X144561903Y-41308940D02*
X144599999Y-41347035D01*
X144599999Y-41347035D02*
X144561903Y-41385130D01*
X144561903Y-41385130D02*
X144523808Y-41347035D01*
X144523808Y-41347035D02*
X144561903Y-41308940D01*
X144561903Y-41308940D02*
X144561903Y-41385130D01*
X144295237Y-41575606D02*
X143990475Y-41575606D01*
X144180951Y-41308940D02*
X144180951Y-41994654D01*
X144180951Y-41994654D02*
X144142856Y-42070845D01*
X144142856Y-42070845D02*
X144066666Y-42108940D01*
X144066666Y-42108940D02*
X143990475Y-42108940D01*
X143723808Y-42108940D02*
X143723808Y-41575606D01*
X143723808Y-41308940D02*
X143761904Y-41347035D01*
X143761904Y-41347035D02*
X143723808Y-41385130D01*
X143723808Y-41385130D02*
X143685713Y-41347035D01*
X143685713Y-41347035D02*
X143723808Y-41308940D01*
X143723808Y-41308940D02*
X143723808Y-41385130D01*
X143419047Y-41575606D02*
X143228571Y-42108940D01*
X143228571Y-42108940D02*
X143038094Y-41575606D01*
X142428570Y-42070845D02*
X142504761Y-42108940D01*
X142504761Y-42108940D02*
X142657142Y-42108940D01*
X142657142Y-42108940D02*
X142733332Y-42070845D01*
X142733332Y-42070845D02*
X142771428Y-41994654D01*
X142771428Y-41994654D02*
X142771428Y-41689892D01*
X142771428Y-41689892D02*
X142733332Y-41613702D01*
X142733332Y-41613702D02*
X142657142Y-41575606D01*
X142657142Y-41575606D02*
X142504761Y-41575606D01*
X142504761Y-41575606D02*
X142428570Y-41613702D01*
X142428570Y-41613702D02*
X142390475Y-41689892D01*
X142390475Y-41689892D02*
X142390475Y-41766083D01*
X142390475Y-41766083D02*
X142771428Y-41842273D01*
X141476190Y-42070845D02*
X141361904Y-42108940D01*
X141361904Y-42108940D02*
X141171428Y-42108940D01*
X141171428Y-42108940D02*
X141095237Y-42070845D01*
X141095237Y-42070845D02*
X141057142Y-42032749D01*
X141057142Y-42032749D02*
X141019047Y-41956559D01*
X141019047Y-41956559D02*
X141019047Y-41880368D01*
X141019047Y-41880368D02*
X141057142Y-41804178D01*
X141057142Y-41804178D02*
X141095237Y-41766083D01*
X141095237Y-41766083D02*
X141171428Y-41727987D01*
X141171428Y-41727987D02*
X141323809Y-41689892D01*
X141323809Y-41689892D02*
X141399999Y-41651797D01*
X141399999Y-41651797D02*
X141438094Y-41613702D01*
X141438094Y-41613702D02*
X141476190Y-41537511D01*
X141476190Y-41537511D02*
X141476190Y-41461321D01*
X141476190Y-41461321D02*
X141438094Y-41385130D01*
X141438094Y-41385130D02*
X141399999Y-41347035D01*
X141399999Y-41347035D02*
X141323809Y-41308940D01*
X141323809Y-41308940D02*
X141133332Y-41308940D01*
X141133332Y-41308940D02*
X141019047Y-41347035D01*
X140371427Y-42070845D02*
X140447618Y-42108940D01*
X140447618Y-42108940D02*
X140599999Y-42108940D01*
X140599999Y-42108940D02*
X140676189Y-42070845D01*
X140676189Y-42070845D02*
X140714285Y-41994654D01*
X140714285Y-41994654D02*
X140714285Y-41689892D01*
X140714285Y-41689892D02*
X140676189Y-41613702D01*
X140676189Y-41613702D02*
X140599999Y-41575606D01*
X140599999Y-41575606D02*
X140447618Y-41575606D01*
X140447618Y-41575606D02*
X140371427Y-41613702D01*
X140371427Y-41613702D02*
X140333332Y-41689892D01*
X140333332Y-41689892D02*
X140333332Y-41766083D01*
X140333332Y-41766083D02*
X140714285Y-41842273D01*
X139990475Y-41575606D02*
X139990475Y-42108940D01*
X139990475Y-41651797D02*
X139952380Y-41613702D01*
X139952380Y-41613702D02*
X139876190Y-41575606D01*
X139876190Y-41575606D02*
X139761904Y-41575606D01*
X139761904Y-41575606D02*
X139685713Y-41613702D01*
X139685713Y-41613702D02*
X139647618Y-41689892D01*
X139647618Y-41689892D02*
X139647618Y-42108940D01*
X139304761Y-42070845D02*
X139228570Y-42108940D01*
X139228570Y-42108940D02*
X139076189Y-42108940D01*
X139076189Y-42108940D02*
X138999999Y-42070845D01*
X138999999Y-42070845D02*
X138961903Y-41994654D01*
X138961903Y-41994654D02*
X138961903Y-41956559D01*
X138961903Y-41956559D02*
X138999999Y-41880368D01*
X138999999Y-41880368D02*
X139076189Y-41842273D01*
X139076189Y-41842273D02*
X139190475Y-41842273D01*
X139190475Y-41842273D02*
X139266665Y-41804178D01*
X139266665Y-41804178D02*
X139304761Y-41727987D01*
X139304761Y-41727987D02*
X139304761Y-41689892D01*
X139304761Y-41689892D02*
X139266665Y-41613702D01*
X139266665Y-41613702D02*
X139190475Y-41575606D01*
X139190475Y-41575606D02*
X139076189Y-41575606D01*
X139076189Y-41575606D02*
X138999999Y-41613702D01*
X138504761Y-42108940D02*
X138580951Y-42070845D01*
X138580951Y-42070845D02*
X138619046Y-42032749D01*
X138619046Y-42032749D02*
X138657142Y-41956559D01*
X138657142Y-41956559D02*
X138657142Y-41727987D01*
X138657142Y-41727987D02*
X138619046Y-41651797D01*
X138619046Y-41651797D02*
X138580951Y-41613702D01*
X138580951Y-41613702D02*
X138504761Y-41575606D01*
X138504761Y-41575606D02*
X138390475Y-41575606D01*
X138390475Y-41575606D02*
X138314284Y-41613702D01*
X138314284Y-41613702D02*
X138276189Y-41651797D01*
X138276189Y-41651797D02*
X138238094Y-41727987D01*
X138238094Y-41727987D02*
X138238094Y-41956559D01*
X138238094Y-41956559D02*
X138276189Y-42032749D01*
X138276189Y-42032749D02*
X138314284Y-42070845D01*
X138314284Y-42070845D02*
X138390475Y-42108940D01*
X138390475Y-42108940D02*
X138504761Y-42108940D01*
X137895236Y-42108940D02*
X137895236Y-41575606D01*
X137895236Y-41727987D02*
X137857141Y-41651797D01*
X137857141Y-41651797D02*
X137819046Y-41613702D01*
X137819046Y-41613702D02*
X137742855Y-41575606D01*
X137742855Y-41575606D02*
X137666665Y-41575606D01*
X143761904Y-42863561D02*
X143571428Y-43396895D01*
X143571428Y-43396895D02*
X143380951Y-42863561D01*
X143076189Y-43320704D02*
X143038094Y-43358800D01*
X143038094Y-43358800D02*
X143076189Y-43396895D01*
X143076189Y-43396895D02*
X143114285Y-43358800D01*
X143114285Y-43358800D02*
X143076189Y-43320704D01*
X143076189Y-43320704D02*
X143076189Y-43396895D01*
X142276190Y-43396895D02*
X142733333Y-43396895D01*
X142504761Y-43396895D02*
X142504761Y-42596895D01*
X142504761Y-42596895D02*
X142580952Y-42711180D01*
X142580952Y-42711180D02*
X142657142Y-42787371D01*
X142657142Y-42787371D02*
X142733333Y-42825466D01*
D11*
%TO.C,G\u002A\u002A\u002A*%
G36*
X134537997Y-52728865D02*
G01*
X137759720Y-52740280D01*
X137771276Y-54871080D01*
X137782833Y-57001881D01*
X137259718Y-56472037D01*
X137160940Y-56373323D01*
X136842662Y-56077849D01*
X136547104Y-55844703D01*
X136257042Y-55662672D01*
X135955254Y-55520536D01*
X135624519Y-55407081D01*
X135420113Y-55354648D01*
X135023428Y-55287499D01*
X134618941Y-55258008D01*
X134235374Y-55267660D01*
X133901451Y-55317943D01*
X133721445Y-55367293D01*
X133324339Y-55523884D01*
X132958140Y-55733036D01*
X132637205Y-55984245D01*
X132375894Y-56267011D01*
X132188564Y-56570832D01*
X132141525Y-56676851D01*
X132101673Y-56794059D01*
X132078943Y-56918898D01*
X132068810Y-57078457D01*
X132066745Y-57299825D01*
X132068577Y-57487522D01*
X132077032Y-57652062D01*
X132096388Y-57773773D01*
X132130960Y-57877807D01*
X132185067Y-57989317D01*
X132285674Y-58144851D01*
X132424499Y-58310694D01*
X132582153Y-58467358D01*
X132741136Y-58598945D01*
X132883945Y-58689556D01*
X132993078Y-58723292D01*
X133004935Y-58723012D01*
X133052448Y-58706603D01*
X133057943Y-58655469D01*
X133019020Y-58556483D01*
X132933275Y-58396517D01*
X132861922Y-58255432D01*
X132813026Y-58092536D01*
X132799825Y-57903476D01*
X132804841Y-57790909D01*
X132865631Y-57530557D01*
X132999141Y-57308551D01*
X133210083Y-57118531D01*
X133503168Y-56954136D01*
X133628564Y-56901642D01*
X133754171Y-56868175D01*
X133895847Y-56857522D01*
X134089650Y-56864150D01*
X134127091Y-56866746D01*
X134480601Y-56934533D01*
X134804736Y-57072991D01*
X135086290Y-57272959D01*
X135312056Y-57525276D01*
X135468827Y-57820782D01*
X135530526Y-58034007D01*
X135560702Y-58391807D01*
X135506886Y-58762316D01*
X135369705Y-59137206D01*
X135199567Y-59450099D01*
X134905514Y-59846794D01*
X134554709Y-60175858D01*
X134145814Y-60438274D01*
X133677491Y-60635023D01*
X133148401Y-60767087D01*
X132947821Y-60790121D01*
X132646190Y-60796040D01*
X132320548Y-60778293D01*
X132004643Y-60738952D01*
X131732224Y-60680089D01*
X131460092Y-60586856D01*
X131124075Y-60437776D01*
X130790471Y-60258633D01*
X130487639Y-60064831D01*
X130243938Y-59871771D01*
X130030589Y-59656573D01*
X129714707Y-59239166D01*
X129468798Y-58767084D01*
X129292990Y-58240662D01*
X129187411Y-57660235D01*
X129152189Y-57026135D01*
X129156156Y-56792631D01*
X129181602Y-56443971D01*
X129235044Y-56105626D01*
X129321607Y-55748265D01*
X129446416Y-55342557D01*
X129596681Y-54953738D01*
X129827226Y-54504615D01*
X130122367Y-54054115D01*
X130488478Y-53592660D01*
X130931932Y-53110674D01*
X131316274Y-52717449D01*
X134537997Y-52728865D01*
G37*
%TD*%
M02*
